<?xml version="1.0" encoding="UTF-8" standalone="no"?>
<svg xmlns="http://www.w3.org/2000/svg" width="1200" height="600" viewBox="0 0 1200 600">
  <style>
    .sky{fill:#3498db;}
    .ground{fill:#8B4513;}
    .excavator{fill:#F0A500;}
    .building{fill:#333333;}
    .window{fill:#F0A500;}
  </style>
  
  <!-- Background -->
  <rect x="0" y="0" width="1200" height="600" fill="#f4f4f4"/>
  
  <!-- Sky -->
  <rect x="0" y="0" width="1200" height="300" class="sky"/>
  
  <!-- Ground -->
  <rect x="0" y="300" width="1200" height="300" class="ground"/>
  
  <!-- Buildings in Background -->
  <rect x="100" y="100" width="150" height="300" class="building"/>
  <rect x="120" y="130" width="30" height="40" class="window"/>
  <rect x="200" y="130" width="30" height="40" class="window"/>
  <rect x="120" y="200" width="30" height="40" class="window"/>
  <rect x="200" y="200" width="30" height="40" class="window"/>
  <rect x="150" y="300" width="50" height="100" class="window"/>
  
  <rect x="300" y="150" width="200" height="250" class="building"/>
  <rect x="330" y="180" width="40" height="50" class="window"/>
  <rect x="430" y="180" width="40" height="50" class="window"/>
  <rect x="330" y="260" width="40" height="50" class="window"/>
  <rect x="430" y="260" width="40" height="50" class="window"/>
  <rect x="380" y="350" width="40" height="50" class="window"/>
  
  <rect x="600" y="200" width="100" height="200" class="building"/>
  <rect x="620" y="220" width="25" height="30" class="window"/>
  <rect x="655" y="220" width="25" height="30" class="window"/>
  <rect x="620" y="260" width="25" height="30" class="window"/>
  <rect x="655" y="260" width="25" height="30" class="window"/>
  <rect x="620" y="300" width="25" height="30" class="window"/>
  <rect x="655" y="300" width="25" height="30" class="window"/>
  <rect x="630" y="350" width="40" height="50" class="window"/>
  
  <rect x="800" y="100" width="180" height="300" class="building"/>
  <rect x="830" y="130" width="35" height="45" class="window"/>
  <rect x="915" y="130" width="35" height="45" class="window"/>
  <rect x="830" y="200" width="35" height="45" class="window"/>
  <rect x="915" y="200" width="35" height="45" class="window"/>
  <rect x="830" y="270" width="35" height="45" class="window"/>
  <rect x="915" y="270" width="35" height="45" class="window"/>
  <rect x="870" y="350" width="40" height="50" class="window"/>
  
  <!-- Excavator -->
  <g class="excavator" transform="translate(950, 350) scale(1.5)">
    <rect x="0" y="0" width="60" height="30"/>
    <rect x="20" y="30" width="20" height="40"/>
    <rect x="-10" y="70" width="80" height="20"/>
    <circle cx="10" cy="100" r="15"/>
    <circle cx="50" cy="100" r="15"/>
    <rect x="60" y="40" width="80" height="10"/>
    <rect x="130" y="30" width="20" height="30"/>
  </g>
</svg>
