<?xml version="1.0" encoding="UTF-8" standalone="no"?>
<svg xmlns="http://www.w3.org/2000/svg" width="200" height="200" viewBox="0 0 200 200">
  <style>
    .st0{fill:#F0A500;}
    .st1{fill:#333333;}
    .st2{fill:#FFFFFF;}
  </style>
  <g>
    <!-- Africa continent shape -->
    <path class="st0" d="M100,20c-44.1,0-80,35.9-80,80s35.9,80,80,80s80-35.9,80-80S144.1,20,100,20z M100,160c-33.1,0-60-26.9-60-60
      s26.9-60,60-60s60,26.9,60,60S133.1,160,100,160z"/>
    <path class="st0" d="M125,70c-5-8-15-12-15-12s-5,10-10,15s-15,5-20,10s-5,15-5,20s5,15,10,20s15,10,20,10s15-5,20-10
      s10-15,10-20S130,78,125,70z"/>
  </g>
  <!-- Construction element -->
  <g>
    <rect x="85" y="130" class="st1" width="30" height="10"/>
    <polygon class="st1" points="70,140 70,150 130,150 130,140 120,140 120,130 80,130 80,140"/>
    <rect x="95" y="110" class="st1" width="10" height="20"/>
  </g>
</svg>
