<?xml version="1.0" encoding="UTF-8" standalone="no"?>
<svg xmlns="http://www.w3.org/2000/svg" width="400" height="300" viewBox="0 0 400 300">
  <style>
    .paver{fill:#CF7500;}
    .paver-alt{fill:#F0A500;}
    .background{fill:#F4F4F4;}
  </style>
  
  <!-- Background -->
  <rect x="0" y="0" width="400" height="300" class="background"/>
  
  <!-- Pavers - First Row -->
  <rect x="50" y="50" width="50" height="25" class="paver"/>
  <rect x="100" y="50" width="50" height="25" class="paver-alt"/>
  <rect x="150" y="50" width="50" height="25" class="paver"/>
  <rect x="200" y="50" width="50" height="25" class="paver-alt"/>
  <rect x="250" y="50" width="50" height="25" class="paver"/>
  <rect x="300" y="50" width="50" height="25" class="paver-alt"/>
  
  <!-- Pavers - Second Row -->
  <rect x="50" y="75" width="50" height="25" class="paver-alt"/>
  <rect x="100" y="75" width="50" height="25" class="paver"/>
  <rect x="150" y="75" width="50" height="25" class="paver-alt"/>
  <rect x="200" y="75" width="50" height="25" class="paver"/>
  <rect x="250" y="75" width="50" height="25" class="paver-alt"/>
  <rect x="300" y="75" width="50" height="25" class="paver"/>
  
  <!-- Pavers - Third Row -->
  <rect x="50" y="100" width="50" height="25" class="paver"/>
  <rect x="100" y="100" width="50" height="25" class="paver-alt"/>
  <rect x="150" y="100" width="50" height="25" class="paver"/>
  <rect x="200" y="100" width="50" height="25" class="paver-alt"/>
  <rect x="250" y="100" width="50" height="25" class="paver"/>
  <rect x="300" y="100" width="50" height="25" class="paver-alt"/>
  
  <!-- Pavers - Fourth Row -->
  <rect x="50" y="125" width="50" height="25" class="paver-alt"/>
  <rect x="100" y="125" width="50" height="25" class="paver"/>
  <rect x="150" y="125" width="50" height="25" class="paver-alt"/>
  <rect x="200" y="125" width="50" height="25" class="paver"/>
  <rect x="250" y="125" width="50" height="25" class="paver-alt"/>
  <rect x="300" y="125" width="50" height="25" class="paver"/>
  
  <!-- Pavers - Fifth Row -->
  <rect x="50" y="150" width="50" height="25" class="paver"/>
  <rect x="100" y="150" width="50" height="25" class="paver-alt"/>
  <rect x="150" y="150" width="50" height="25" class="paver"/>
  <rect x="200" y="150" width="50" height="25" class="paver-alt"/>
  <rect x="250" y="150" width="50" height="25" class="paver"/>
  <rect x="300" y="150" width="50" height="25" class="paver-alt"/>
  
  <!-- Pavers - Sixth Row -->
  <rect x="50" y="175" width="50" height="25" class="paver-alt"/>
  <rect x="100" y="175" width="50" height="25" class="paver"/>
  <rect x="150" y="175" width="50" height="25" class="paver-alt"/>
  <rect x="200" y="175" width="50" height="25" class="paver"/>
  <rect x="250" y="175" width="50" height="25" class="paver-alt"/>
  <rect x="300" y="175" width="50" height="25" class="paver"/>
  
  <!-- Pavers - Seventh Row -->
  <rect x="50" y="200" width="50" height="25" class="paver"/>
  <rect x="100" y="200" width="50" height="25" class="paver-alt"/>
  <rect x="150" y="200" width="50" height="25" class="paver"/>
  <rect x="200" y="200" width="50" height="25" class="paver-alt"/>
  <rect x="250" y="200" width="50" height="25" class="paver"/>
  <rect x="300" y="200" width="50" height="25" class="paver-alt"/>
  
  <!-- Pavers - Eighth Row -->
  <rect x="50" y="225" width="50" height="25" class="paver-alt"/>
  <rect x="100" y="225" width="50" height="25" class="paver"/>
  <rect x="150" y="225" width="50" height="25" class="paver-alt"/>
  <rect x="200" y="225" width="50" height="25" class="paver"/>
  <rect x="250" y="225" width="50" height="25" class="paver-alt"/>
  <rect x="300" y="225" width="50" height="25" class="paver"/>
</svg>
